<svg width="32" height="32" viewBox="0 0 32 32" fill="none" xmlns="http://www.w3.org/2000/svg">
<g id="back" clip-path="url(#clip0_2_245)">
<rect id="Rectangle 16" width="32" height="32" rx="10" fill="#F8F8F8"/>
<path id="Vector" d="M12.0027 16.0013C12.0022 15.7676 12.0836 15.5412 12.2327 15.3613L17.2327 9.36125C17.4024 9.15704 17.6463 9.02861 17.9107 9.00423C18.1752 8.97985 18.4384 9.06151 18.6427 9.23125C18.8469 9.40099 18.9753 9.6449 18.9997 9.90933C19.0241 10.1738 18.9424 10.437 18.7727 10.6413L14.2927 16.0013L18.6127 21.3613C18.6957 21.4635 18.7578 21.5812 18.7952 21.7076C18.8326 21.8339 18.8447 21.9664 18.8308 22.0974C18.8168 22.2285 18.7771 22.3554 18.714 22.4711C18.6508 22.5867 18.5654 22.6887 18.4627 22.7713C18.3598 22.8628 18.2392 22.9322 18.1083 22.975C17.9775 23.0178 17.8392 23.0331 17.7021 23.0199C17.565 23.0068 17.4322 22.9655 17.3118 22.8986C17.1914 22.8317 17.0862 22.7407 17.0027 22.6313L12.1727 16.6313C12.0471 16.4462 11.9873 16.2244 12.0027 16.0013Z" fill="#242424"/>
</g>
<defs>
<clipPath id="clip0_2_245">
<rect width="32" height="32" fill="white"/>
</clipPath>
</defs>
</svg>
