<svg width="36" height="36" viewBox="0 0 36 36" fill="none" xmlns="http://www.w3.org/2000/svg">
<g id="breakfast" clip-path="url(#clip0_2_269)">
<rect id="Rectangle 41" width="36" height="36" rx="8" fill="white"/>
<path id="Vector" d="M13.1833 10.4375C12.7711 10.4375 12.4963 10.85 12.4963 11.125V14.5625H11.1222V11.125C11.1222 10.7125 10.8474 10.4375 10.4352 10.4375C10.023 10.4375 9.74814 10.85 9.74814 11.125V14.5625H8.37407V11.125C8.37407 10.7125 8.09926 10.4375 7.68704 10.4375C7.27481 10.4375 7 10.85 7 11.125V15.6625C7 16.9 7.96185 17.8625 9.06111 18V27.625C9.06111 28.45 9.61073 29 10.4352 29C11.2596 29 11.8092 28.45 11.8092 27.625V18C12.9085 17.8625 13.8704 16.9 13.8704 15.6625V11.125C13.8704 10.85 13.5955 10.4375 13.1833 10.4375ZM15.9315 11.125V19.375H17.3055V27.625C17.3055 28.45 17.8552 29 18.6796 29C19.504 29 20.0537 28.45 20.0537 27.625V7C17.7177 7 15.9315 8.7875 15.9315 11.125ZM25.5499 9.75C23.6263 9.75 22.1148 11.8125 22.1148 14.2875C21.9774 15.9375 22.8018 17.45 24.1759 18.4125V27.625C24.1759 28.45 24.7255 29 25.5499 29C26.3744 29 26.924 28.45 26.924 27.625V18.4125C28.2981 17.45 29.1225 15.9375 28.9851 14.2875C28.9851 11.8125 27.4736 9.75 25.5499 9.75Z" fill="#81D5A3"/>
</g>
<defs>
<clipPath id="clip0_2_269">
<rect width="36" height="36" fill="white"/>
</clipPath>
</defs>
</svg>
