<svg width="36" height="36" viewBox="0 0 36 36" fill="none" xmlns="http://www.w3.org/2000/svg">
<g id="distance" clip-path="url(#clip0_2_264)">
<rect id="Rectangle 41" width="36" height="36" rx="8" fill="white"/>
<path id="Vector" d="M27.6492 15.4969L26.1444 11.1649C25.9261 10.5342 25.5062 9.98557 24.9444 9.59693C24.3826 9.20828 23.7075 8.99941 23.0149 9H12.9851C12.2925 8.99941 11.6174 9.20828 11.0556 9.59693C10.4938 9.98557 10.0739 10.5342 9.8556 11.1649L8.3508 15.4969C7.95064 15.6576 7.60892 15.9282 7.36857 16.2747C7.12823 16.6212 7 17.0282 7 17.4444V22.7222C7 23.5012 7.4444 24.1747 8.1 24.5409V26.9444C8.1 27.2244 8.21589 27.4929 8.42218 27.6908C8.62847 27.8888 8.90826 28 9.2 28H10.3C10.5917 28 10.8715 27.8888 11.0778 27.6908C11.2841 27.4929 11.4 27.2244 11.4 26.9444V24.8333H24.6V26.9444C24.6 27.2244 24.7159 27.4929 24.9222 27.6908C25.1285 27.8888 25.4083 28 25.7 28H26.8C27.0917 28 27.3715 27.8888 27.5778 27.6908C27.7841 27.4929 27.9 27.2244 27.9 26.9444V24.5409C28.2337 24.3573 28.5111 24.0925 28.7042 23.7732C28.8974 23.4539 28.9994 23.0914 29 22.7222V17.4444C29 17.0282 28.8718 16.6212 28.6314 16.2747C28.3911 15.9282 28.0494 15.6576 27.6492 15.4969ZM12.9851 11.1111H23.0138C23.4879 11.1111 23.9081 11.4003 24.0577 11.8331L25.2743 15.3333H10.7257L11.9412 11.8331C12.0142 11.6228 12.1543 11.4399 12.3417 11.3104C12.529 11.1808 12.7541 11.1111 12.9851 11.1111ZM10.85 21.6667C10.6332 21.6666 10.4186 21.6256 10.2184 21.5459C10.0182 21.4662 9.83626 21.3495 9.68305 21.2024C9.52983 21.0553 9.40831 20.8806 9.32543 20.6884C9.24255 20.4962 9.19993 20.2903 9.2 20.0823C9.20007 19.8743 9.24284 19.6683 9.32585 19.4762C9.40887 19.2841 9.53051 19.1095 9.68382 18.9625C9.83714 18.8154 10.0191 18.6988 10.2194 18.6193C10.4197 18.5398 10.6343 18.4989 10.8511 18.4989C11.2889 18.4991 11.7086 18.6661 12.0181 18.9632C12.3275 19.2604 12.5012 19.6633 12.5011 20.0833C12.501 20.5034 12.3269 20.9062 12.0173 21.2031C11.7076 21.5001 11.2878 21.6668 10.85 21.6667ZM25.15 21.6667C24.9332 21.6666 24.7186 21.6256 24.5184 21.5459C24.3182 21.4662 24.1363 21.3495 23.983 21.2024C23.8298 21.0553 23.7083 20.8806 23.6254 20.6884C23.5425 20.4962 23.4999 20.2903 23.5 20.0823C23.5001 19.8743 23.5428 19.6683 23.6259 19.4762C23.7089 19.2841 23.8305 19.1095 23.9838 18.9625C24.1371 18.8154 24.3191 18.6988 24.5194 18.6193C24.7197 18.5398 24.9343 18.4989 25.1511 18.4989C25.5889 18.4991 26.0086 18.6661 26.3181 18.9632C26.6275 19.2604 26.8012 19.6633 26.8011 20.0833C26.801 20.5034 26.6269 20.9062 26.3173 21.2031C26.0076 21.5001 25.5878 21.6668 25.15 21.6667Z" fill="#FFC187"/>
</g>
<defs>
<clipPath id="clip0_2_264">
<rect width="36" height="36" fill="white"/>
</clipPath>
</defs>
</svg>
