<svg width="36" height="36" viewBox="0 0 36 36" fill="none" xmlns="http://www.w3.org/2000/svg">
<g id="ensurance" clip-path="url(#clip0_2_274)">
<rect id="Rectangle 41" width="36" height="36" rx="8" fill="white"/>
<path id="Vector" d="M16.125 19.6743H14.875C13.8375 19.6743 13 18.8311 13 17.7867C13 16.7422 13.8375 15.899 14.875 15.899H16.125V14.6406C16.125 13.5961 16.9625 12.753 18 12.753C19.0375 12.753 19.875 13.5961 19.875 14.6406V15.899H21.125C22.1625 15.899 23 16.7422 23 17.7867C23 18.8311 22.1625 19.6743 21.125 19.6743H19.875V20.9327C19.875 21.9772 19.0375 22.8203 18 22.8203C16.9625 22.8203 16.125 21.9772 16.125 20.9327V19.6743ZM17.125 6.15891L9.625 8.99034C8.65 9.36786 8 10.2991 8 11.3562V17.2707C8 23.6257 12.2625 29.5528 18 31C23.7375 29.5528 28 23.6257 28 17.2707V11.3562C27.9991 10.8441 27.8431 10.3444 27.5527 9.92394C27.2624 9.50346 26.8515 9.18216 26.375 9.00292L18.875 6.17149C18.3125 5.94498 17.6875 5.94498 17.125 6.15891Z" fill="#A8BAC5"/>
</g>
<defs>
<clipPath id="clip0_2_274">
<rect width="36" height="36" fill="white"/>
</clipPath>
</defs>
</svg>
