<svg width="36" height="36" viewBox="0 0 36 36" fill="none" xmlns="http://www.w3.org/2000/svg">
<g id="price" clip-path="url(#clip0_2_258)">
<rect id="Rectangle 41" width="36" height="36" rx="8" fill="white"/>
<g id="Group">
<path id="Vector" d="M6 11.75C6 10.9544 6.31607 10.1913 6.87868 9.62868C7.44129 9.06607 8.20435 8.75 9 8.75H27C27.7956 8.75 28.5587 9.06607 29.1213 9.62868C29.6839 10.1913 30 10.9544 30 11.75V13.25H6V11.75ZM6 16.25V23.75C6 24.5456 6.31607 25.3087 6.87868 25.8713C7.44129 26.4339 8.20435 26.75 9 26.75H27C27.7956 26.75 28.5587 26.4339 29.1213 25.8713C29.6839 25.3087 30 24.5456 30 23.75V16.25H6ZM10.5 19.25H12C12.3978 19.25 12.7794 19.408 13.0607 19.6893C13.342 19.9706 13.5 20.3522 13.5 20.75V22.25C13.5 22.6478 13.342 23.0294 13.0607 23.3107C12.7794 23.592 12.3978 23.75 12 23.75H10.5C10.1022 23.75 9.72064 23.592 9.43934 23.3107C9.15804 23.0294 9 22.6478 9 22.25V20.75C9 20.3522 9.15804 19.9706 9.43934 19.6893C9.72064 19.408 10.1022 19.25 10.5 19.25Z" fill="#8DBCE8"/>
</g>
</g>
<defs>
<clipPath id="clip0_2_258">
<rect width="36" height="36" fill="white"/>
</clipPath>
</defs>
</svg>
